<?xml version="1.0" encoding="utf-8" ?>
<svg xmlns="http://www.w3.org/2000/svg" xmlns:xlink="http://www.w3.org/1999/xlink" width="2500" height="2499">
	<path fill="#0D4E7B" transform="scale(4.88281 4.88281)" d="M104.33 89.5903C110.083 89.4248 115.891 89.5864 121.65 89.5867L390.646 89.58C401.263 89.5759 414.822 87.1179 420.676 98.5694C423.995 105.063 423.076 120.707 422.945 128.557C422.777 138.581 423.624 138.702 427.351 148.149L437.852 174.266C438.931 176.89 440.821 179.534 441.317 182.338C443.88 196.815 435.879 211.127 422.978 217.681C422.764 223.026 422.965 228.454 422.972 233.807L422.995 391.883C423.004 405.305 425.237 421.278 406.603 421.87L117 421.878C105.718 421.887 90.6044 423.297 89.0769 407.463C88.8009 404.602 89.058 401.625 89.0805 398.752L89.1 230.149C89.0946 226.005 88.8838 221.815 89.1039 217.681C74.5027 209.816 70.8896 198.25 71.047 182.015C74.7499 171.396 80.679 158.044 84.9513 147.34C88.5553 138.31 89.1225 140.314 89.1016 130.853L89.0771 114.454C89.0621 102.985 89.1307 91.448 104.33 89.5903ZM126.851 204.963C120.54 216.092 110.041 219.945 98.0178 220.132L98.0222 384.932C98.0216 392.124 97.6142 399.534 98.2491 406.691C98.9732 414.854 109.864 412.772 115.502 412.739L399.254 412.748C416.992 412.714 414.137 409.068 414.136 393.26L414.121 370.397L414.125 237.059C414.126 231.432 414.287 225.753 414.121 220.132C401.101 221.361 392.049 215.705 384.684 205.72C371.379 225.227 346.645 225.275 333.025 205.72C322.862 220.683 305.14 225.564 289.797 214.893C286.815 212.82 284.82 209.902 282.135 207.557C279.882 209.399 278.072 211.698 275.869 213.591C263.28 224.405 236.079 222.122 231.193 205.72C223.816 213.802 217.273 219.792 205.715 220.297C191.319 220.927 186.697 214.955 178.802 205.72C167.284 220.842 149.535 225.186 133.915 213.182C130.757 210.754 129.365 207.812 126.851 204.963ZM376.4 141.8C378.695 152.728 384.075 168.16 387.401 179.251L429.884 179.251C427.056 168.172 419.04 153.488 415.037 141.8L389.568 141.788C385.195 141.786 380.766 141.629 376.4 141.8ZM97.1406 141.8C93.0043 152.783 85.3655 168.558 82.4814 179.251L120.875 179.251L124.362 179.251L132.225 152.718C133.298 149.096 134.605 145.471 135.478 141.8L97.1406 141.8ZM190.514 141.8C188.645 154.259 187.201 166.838 185.098 179.251L224.056 179.251L226.254 179.251C227.836 169.166 228.775 152.182 228.743 141.8L190.514 141.8ZM330.937 141.8L330.39 142.04C329.867 144.563 334.872 172.63 335.569 179.251L377.231 179.251L377.596 178.924C377.247 170.988 369.023 151.437 366.907 141.8L330.937 141.8ZM237.781 141.8C237.781 153.879 235.391 166.971 235.767 178.534L235.791 179.251L275.111 179.251C275.772 179.232 276.614 179.371 277.148 178.976C275.844 166.848 274.828 153.995 275.111 141.8L237.781 141.8ZM145.065 141.8C141.733 154.348 137.706 166.76 134.138 179.251L170.562 179.251L175.844 179.251C176.846 174.705 177.307 169.947 177.917 165.332L181.014 141.8L145.065 141.8ZM283.704 141.8C283.625 154.272 285.761 166.749 285.706 179.251C299.196 179.415 312.705 179.248 326.196 179.251C326.825 171.979 321.669 151.281 321.1 141.8L296.222 141.787C292.07 141.784 287.849 141.624 283.704 141.8ZM235.791 188.249C233.084 189.048 236.366 197.415 237.193 199.148C243.354 212.048 260.119 216.178 270.725 205.72C275.633 201.017 277.846 194.992 277.773 188.249C263.784 188.248 249.777 188.103 235.791 188.249ZM134.138 188.249C133.42 188.284 132.68 188.152 132.114 188.613C130.541 206.624 151.744 218.213 167.184 205.72C172.497 200.607 173.982 195.38 175.014 188.249L147.415 188.237C143.045 188.234 138.486 187.946 134.138 188.249ZM222.666 188.249L183.933 188.249C184.258 195.987 186.331 202.814 192.753 207.557C208.878 218.517 224.543 206.132 226.254 188.249C225.067 188.238 223.849 188.167 222.666 188.249ZM337.282 188.249C339.282 208.639 357.984 219.539 373.611 204.963C377.879 199.886 379.84 194.871 380.183 188.249C365.903 188.25 351.555 187.937 337.282 188.249ZM286.257 188.249C286.576 208.858 305.022 217.87 321.875 205.72C326.335 200.014 328.083 195.53 328.399 188.249L286.257 188.249ZM390.001 188.249C391.512 209.602 412.03 219.582 425.4 204.963C430.228 199.989 431.555 194.999 432.009 188.249C418.017 188.248 403.989 188.028 390.001 188.249ZM80.2406 188.249C80.4407 208.741 99.5427 217.647 115.987 204.963C119.645 199.005 121.865 195.387 122.258 188.249L80.2406 188.249Z"/>
	<path fill="#7DC3E9" transform="scale(4.88281 4.88281)" d="M168.661 98.9006L378.47 98.8999C384.212 98.9 407.41 97.1467 411.162 101.095C414.353 104.452 413.387 110.838 413.386 115.019L413.369 132.508L344.562 132.508L98.0178 132.508L98.0032 115.87C98 109.896 96.2607 100.34 104.378 99.1792C110.264 98.3373 119.375 98.9086 125.611 98.9099L168.661 98.9006Z"/>
	<path fill="#0D4E7B" transform="scale(4.88281 4.88281)" d="M135.478 110.726C139.376 110.69 152.386 108.86 151.251 115.873C150.96 117.666 149.65 118.751 148.226 119.717C145.383 120.194 138.546 119.902 135.478 119.717C131.813 117.337 130.844 113.011 135.478 110.726Z"/>
	<path fill="#0D4E7B" transform="scale(4.88281 4.88281)" d="M161.522 110.726C166.097 110.489 181.276 108.889 176.108 117.881C175.444 119.036 174.684 119.386 173.433 119.717C169.912 119.713 164.418 120.377 161.184 119.319C155.682 117.518 157.392 112.716 161.522 110.726Z"/>
	<path fill="#0D4E7B" transform="scale(4.88281 4.88281)" d="M110.257 110.726C113.697 110.686 119.371 110.061 122.493 111.04C127.68 112.665 126.441 117.949 122.258 119.717C119.232 119.88 112.729 120.184 110.078 119.37C104.261 117.583 105.695 112.712 110.257 110.726Z"/>
	<path fill="#7DC3E9" transform="scale(4.88281 4.88281)" d="M368.216 256.753C376.048 257.007 410.172 251.465 399.691 266.494C397.948 266.857 396.318 266.674 394.568 266.494L373.111 266.492C370.324 266.481 367.369 266.734 364.606 266.463C360.137 266.024 355.497 257.434 368.216 256.753Z"/>
	<path fill="#7DC3E9" transform="scale(4.88281 4.88281)" d="M137.086 327.253C139.766 327.052 142.591 327.242 145.285 327.243L179.713 327.245C184.091 327.245 196.12 325.618 194.02 333.634C193.478 335.702 192.294 336.7 190.514 337.75C187.383 338.025 184.032 337.775 180.876 337.768L146.389 337.78C142.218 337.801 131.892 338.902 133.605 331.585C134.101 329.466 135.287 328.352 137.086 327.253Z"/>
	<path fill="#7DC3E9" transform="scale(4.88281 4.88281)" d="M328.399 234.102C332.403 233.94 336.459 234.085 340.469 234.09L383.666 234.094C386.795 234.093 396.97 233.289 399.5 234.966C403.729 237.769 401.564 243.227 397.063 243.867C392.371 244.016 387.632 243.871 382.936 243.868L337.577 243.862C334.465 243.88 331.214 244.116 328.113 243.89C322.126 243.453 322.513 234.756 328.399 234.102Z"/>
	<path fill="#7DC3E9" transform="scale(4.88281 4.88281)" d="M394.568 283.267C396.713 283.158 397.882 283.539 399.691 284.689C402.369 289.176 400.961 305.556 400.961 311.27L400.952 356.659L400.795 356.862C398.121 360.373 393.811 359.357 389.864 359.316L340.075 359.29C333.708 358.768 331.811 353.685 336.206 350.198C337.611 349.082 377.129 349.856 381.216 349.797C384.516 349.748 387.722 349.409 391.016 349.813C391.05 343.037 390.435 288.491 391.369 285.912C391.876 284.511 393.324 283.869 394.568 283.267Z"/>
	<path fill="#7DC3E9" transform="scale(4.88281 4.88281)" d="M115.987 227.333C124.718 226.496 122.271 238.588 122.264 243.857L122.258 350.633L185.261 350.615C189.235 350.615 198.37 349.239 198.202 355.522C198.142 357.808 196.884 359.719 195.254 361.228C189.046 360.873 182.746 361.224 176.512 361.228L138.614 361.228C132.411 361.231 122.261 361.86 116.515 360.49C109.248 358.757 112.078 339.277 112.082 332.807L112.114 252.185C112.114 245.413 109.292 229.881 115.987 227.333Z"/>
	<path fill="#0D4E7B" transform="scale(4.88281 4.88281)" d="M161.522 241.261C165.796 241.088 190.158 245.972 195.254 247.467C198.633 255.378 201.668 269.715 203.931 278.257C207.368 278.419 210.84 278.271 214.283 278.267L312.82 278.234C316.434 278.227 320.267 277.956 323.844 278.412C342.466 280.784 329.433 306.508 326.302 317.13C324.655 322.717 320.015 343.678 316.645 347.158C312.764 351.166 305.842 349.88 300.848 349.833L222.666 349.813C223.661 353.717 224.531 357.566 226.254 361.228L311.147 361.202C315.382 361.18 322.009 359.71 324.981 363.177C328.525 370.884 319.004 370.497 314.004 370.443L303.239 370.397C314.825 377.528 319.829 390.744 305.876 398.26C290.645 406.464 272.223 382.295 295.986 370.397L240.113 370.397C243.173 372.376 246.134 373.704 248.144 376.947C255.021 388.043 244.824 402.881 231.767 399.46C217.852 395.814 216.897 378.335 231.193 370.397C217.298 370.495 218.915 371.812 215.446 358.418L191.1 265.254C190.222 262.016 189.483 258.667 188.278 255.537C182.377 254.398 176.422 253.446 170.506 252.368C166.381 251.616 156.479 251.234 158.343 244.613C158.809 242.956 160.121 242.091 161.522 241.261ZM293.101 287.371L287.476 287.371C287.474 294.494 287.38 301.628 287.476 308.749L311.917 308.766C313.718 308.769 318.142 309.191 319.593 308.749C320.448 305.879 325.472 290.398 325.123 288.673C322.314 286.257 315.295 287.359 311.899 287.359L293.101 287.371ZM216.123 287.371C212.942 287.443 209.75 287.287 206.579 287.371C207.645 293.864 210.113 302.266 211.951 308.749L232.375 308.749L241.514 308.749L241.514 287.371L216.123 287.371ZM250.492 317.746L250.492 340.931C259.834 340.921 269.188 340.811 278.529 340.931L278.529 317.746L250.492 317.746ZM287.476 317.746C287.473 325.469 287.353 333.21 287.476 340.931L302.334 340.9C304.787 340.891 307.411 340.675 309.839 340.931C310.312 339.36 310.772 337.783 311.276 336.222C313.258 330.121 315.15 323.947 316.797 317.746L287.476 317.746ZM252.698 287.371C248.929 287.509 250.459 291.915 250.47 295.828L250.492 308.749L276.745 308.749C279.811 308.676 278.543 303.901 278.541 300.881L278.529 287.371L252.698 287.371ZM214.33 317.746C215.758 324.395 218.259 334.465 220.453 340.931L241.514 340.931L241.514 317.746L214.33 317.746ZM299.306 379.769C292.048 380.511 291.873 390.129 299.306 390.995C306.832 389.681 306.785 379.698 299.306 379.769ZM233.731 379.769C226.732 383.107 230.277 391.247 237.215 390.995C243.953 387.388 242.416 379.407 233.731 379.769Z"/>
</svg>
